<svg 
 xmlns="http://www.w3.org/2000/svg"
 xmlns:xlink="http://www.w3.org/1999/xlink"
 width="939px" height="525px">
<path fill-rule="evenodd"  fill-opacity="0.051" fill="rgb(18, 21, 103)"
 d="M933.003,5.995 L933.003,519.994 L6.000,519.994 L6.000,6.217 "/>
<path fill-rule="evenodd"  opacity="0.251" fill="rgb(44, 128, 255)"
 d="M215.280,6.023 L723.817,6.023 L683.296,87.388 L255.801,87.388 L215.280,6.023 Z"/>
<path fill-rule="evenodd"  fill="rgb(45, 204, 232)"
 d="M30.000,520.000 L10.000,520.000 L6.000,520.000 L6.000,516.000 L6.000,496.000 L10.000,496.000 L10.000,516.000 L30.000,516.000 L30.000,520.000 Z"/>
<path fill-rule="evenodd"  fill="rgb(45, 204, 232)"
 d="M929.000,520.000 L909.000,520.000 L909.000,516.000 L929.000,516.000 L929.000,496.000 L933.000,496.000 L933.000,516.000 L933.000,520.000 L929.000,520.000 Z"/>
<path fill-rule="evenodd"  fill="rgb(45, 204, 232)"
 d="M10.000,10.000 L10.000,30.000 L6.000,30.000 L6.000,10.000 L6.000,6.000 L10.000,6.000 L30.000,6.000 L30.000,10.000 L10.000,10.000 Z"/>
<path fill-rule="evenodd"  fill="rgb(45, 204, 232)"
 d="M929.000,30.000 L929.000,10.000 L909.000,10.000 L909.000,6.000 L929.000,6.000 L933.000,6.000 L933.000,10.000 L933.000,30.000 L929.000,30.000 Z"/>
</svg>
