<svg 
 xmlns="http://www.w3.org/2000/svg"
 xmlns:xlink="http://www.w3.org/1999/xlink"
 width="939px" height="1529px">
<path fill-rule="evenodd"  fill-opacity="0.051" fill="rgb(18, 21, 103)"
 d="M933.003,5.013 L933.003,1523.012 L6.000,1523.012 L6.000,5.669 "/>
<path fill-rule="evenodd"  opacity="0.251" fill="rgb(44, 128, 255)"
 d="M215.280,5.023 L723.816,5.023 L683.296,86.388 L255.801,86.388 L215.280,5.023 Z"/>
<path fill-rule="evenodd"  fill="rgb(45, 204, 232)"
 d="M30.000,1523.000 L10.000,1523.000 L6.000,1523.000 L6.000,1519.000 L6.000,1499.000 L10.000,1499.000 L10.000,1519.000 L30.000,1519.000 L30.000,1523.000 Z"/>
<path fill-rule="evenodd"  fill="rgb(45, 204, 232)"
 d="M929.000,1523.000 L909.000,1523.000 L909.000,1519.000 L929.000,1519.000 L929.000,1499.000 L933.000,1499.000 L933.000,1519.000 L933.000,1523.000 L929.000,1523.000 Z"/>
<path fill-rule="evenodd"  fill="rgb(45, 204, 232)"
 d="M10.000,9.000 L10.000,29.000 L6.000,29.000 L6.000,9.000 L6.000,5.000 L10.000,5.000 L30.000,5.000 L30.000,9.000 L10.000,9.000 Z"/>
<path fill-rule="evenodd"  fill="rgb(45, 204, 232)"
 d="M929.000,29.000 L929.000,9.000 L909.000,9.000 L909.000,5.000 L929.000,5.000 L933.000,5.000 L933.000,9.000 L933.000,29.000 L929.000,29.000 Z"/>
</svg>
